<?xml version="1.0" encoding="UTF-8"?>
<!DOCTYPE svg PUBLIC "-//W3C//DTD SVG 1.1//EN" "http://www.w3.org/Graphics/SVG/1.1/DTD/svg11.dtd">
<!-- Creator: CorelDRAW 2020 (64-Bit) -->
<svg xmlns="http://www.w3.org/2000/svg" xml:space="preserve" width="3.1748mm" height="3.063mm" version="1.1" style="shape-rendering:geometricPrecision; text-rendering:geometricPrecision; image-rendering:optimizeQuality; fill-rule:evenodd; clip-rule:evenodd"
viewBox="0 0 0.64 0.62"
 xmlns:xlink="http://www.w3.org/1999/xlink"
 xmlns:xodm="http://www.corel.com/coreldraw/odm/2003">
 <defs>
  <style type="text/css">
   <![CDATA[
    .fil1 {fill:#045190}
    .fil0 {fill:#FEA400}
   ]]>
  </style>
 </defs>
 <g id="Layer_x0020_1">
  <metadata id="CorelCorpID_0Corel-Layer"/>
  <g id="_2912595564896">
   <path class="fil0" d="M-0 0.31c0,0.08 0.02,0.14 0.07,0.2 0.03,0.04 0.07,0.06 0.11,0.08 0.08,0.04 0.2,0.04 0.28,0 0.11,-0.05 0.18,-0.15 0.18,-0.28 0,-0.06 -0.02,-0.11 -0.04,-0.15 -0.01,-0.01 -0.01,-0.02 -0.02,-0.02 -0.01,-0.01 -0.01,-0.01 -0.02,-0.02 -0.05,-0.06 -0.14,-0.11 -0.24,-0.11 -0.06,0 -0.11,0.01 -0.16,0.04 -0.03,0.01 -0.04,0.03 -0.07,0.05 -0.02,0.02 -0.05,0.06 -0.07,0.09 -0.02,0.03 -0.03,0.08 -0.03,0.13zm0.32 -0.16c0.08,0 0.15,0.07 0.15,0.16 0,0.09 -0.07,0.16 -0.15,0.16 -0.08,0 -0.15,-0.07 -0.15,-0.16 0,-0.09 0.07,-0.16 0.15,-0.16z"/>
   <path class="fil1" d="M0.39 0.19c-0,0 -0.02,0.02 -0.03,0.02 -0.01,0 -0.01,0.01 -0.01,0.01l-0.06 0.06 -0.02 0.02c-0.01,-0.02 -0.02,-0.07 -0.07,-0.05 -0.01,0 -0.02,0.01 -0.02,0.02 0.01,0.01 0.02,0.01 0.04,0.05 0,0 0,0.01 0,0.01 0,0 0,0.01 0.01,0.01 0,0.01 0.01,0.03 0.01,0.04 0,0.01 0,0.04 0.01,0.05 0.01,0 0.02,-0 0.02,-0 0.01,-0 0.02,-0 0.03,-0 0.02,-0.05 0.05,-0.11 0.08,-0.14 0.01,-0.01 0.04,-0.05 0.05,-0.06l0.02 -0.02c0.07,-0.06 0.13,-0.07 0.14,-0.08 -0.02,0 -0.04,0 -0.06,0 -0.04,0 -0.05,-0.01 -0.08,0.01l-0.06 0.04z"/>
  </g>
 </g>
</svg>
